<svg width="146" height="134" viewBox="0 0 146 134" fill="none" xmlns="http://www.w3.org/2000/svg">
<g clip-path="url(#clip0_61_689)">
<path d="M119.667 28.137C119.667 28.137 92.9963 80.2218 100.475 111.921C107.955 143.621 43.0961 109.451 34.4312 90.6942C25.7662 71.9373 52.2954 12.7046 52.2954 12.7046L67.7796 11.6773C60.9699 39.9339 66.5186 61.2033 66.5186 61.2033L74.0685 62.4176C74.0685 62.4176 91.8793 32.2135 106.657 20.5827L119.667 28.137Z" fill="#9D7DE0"/>
<path d="M119.667 28.137C119.667 28.137 92.9963 80.2218 100.475 111.921C107.955 143.621 43.0961 109.451 34.4312 90.6942C25.7662 71.9373 52.2954 12.7046 52.2954 12.7046L67.7796 11.6773C60.9699 39.9339 66.5186 61.2033 66.5186 61.2033L74.0685 62.4176C74.0685 62.4176 91.8793 32.2135 106.657 20.5827L119.667 28.137Z" fill="url(#paint0_linear_61_689)"/>
<path d="M87.4227 69.2872C87.0904 70.8746 87.462 71.7204 88.097 71.8533C89.7998 72.2098 90.5629 67.2604 89.9271 66.2462C89.0447 64.8388 87.598 68.4498 87.4227 69.2872Z" fill="black"/>
<path d="M51.7064 64.4166C51.3741 66.004 51.7457 66.8498 52.3807 66.9827C54.0835 67.3392 54.8466 62.3898 54.2108 61.3756C53.3284 59.9682 51.8817 63.5792 51.7064 64.4166Z" fill="black"/>
<path d="M98.3436 60.3685C92.6476 52.0631 90.8948 56.8586 93.2072 57.1743C95.5195 57.49 98.0881 62.2029 98.3436 60.3685Z" fill="black"/>
<path d="M47.0197 53.7853C51.2206 49.031 54.6219 52.9441 49.8747 53.4066C47.7612 53.6125 46.9866 54.8351 47.0197 53.7853Z" fill="black"/>
<path d="M63.3072 73.4526C65.5015 74.4423 69.6773 74.7088 71.4909 74.7183C80.2047 73.67 80.0708 76.0962 78.7474 80.034C76.8474 85.6875 70.7884 90.9967 65.0376 89.6794C59.2867 88.3621 56.2762 80.3661 56.4962 76.7633C56.7162 73.1606 60.5643 72.2154 63.3072 73.4526Z" fill="black"/>
<path d="M63.5006 86.1243C64.0995 87.5248 66.6634 87.7714 69.2274 86.6751C71.7913 85.5788 73.3843 83.5547 72.7855 82.1542C72.457 81.3859 71.8369 80.2652 68.8054 82.1557C65.7739 84.0462 62.1723 83.0178 63.5006 86.1243Z" fill="#9D7DE0"/>
<path d="M84.5891 131C91.1555 130.716 105.283 129.934 109.263 129.082C115.829 127.675 101.8 122.992 99.9105 118L81 120.77L84.5891 131Z" fill="#9D7DE0"/>
<path fill-rule="evenodd" clip-rule="evenodd" d="M99.8829 119.251C99.6946 118.968 99.3455 118.916 99.1033 119.137C96.5671 121.449 92.9972 122.411 89.4967 122.641C86.0079 122.871 82.6711 122.368 80.6788 121.837C80.3796 121.757 80.0819 121.977 80.0139 122.328C79.9459 122.678 80.1334 123.027 80.4326 123.107C82.5143 123.661 85.9553 124.178 89.559 123.941C93.151 123.705 96.9884 122.714 99.7855 120.165C100.028 119.944 100.071 119.535 99.8829 119.251Z" fill="white"/>
<path d="M63 125C56.5162 124.73 42.4023 124.591 38.6367 123.179C32.1601 120.75 47.1055 120.299 45.4903 102L63 115.084V125Z" fill="#9D7DE0"/>
<path d="M130.16 67.5406C128.653 76.9371 127.24 90.9038 122.89 95.8425C116.744 102.82 107.899 101.291 100.108 99.5321L91.8718 79.6936C95.883 81.9017 104.751 85.5946 108.135 82.7007C111.518 79.8067 112.705 66.0569 112.876 59.5438L114.269 58.8689C114.303 56.1769 114.687 49.9058 115.95 46.3584C117.529 41.9242 119.896 45.371 119.688 50.052C119.437 55.7352 133.883 39.2971 136.36 41.9768C137.832 43.568 133.756 47.8058 131.39 49.9453C134.631 47.9552 141.403 44.3386 142.566 45.7933C143.73 47.2481 138.604 51.3438 135.896 53.2099C138.48 51.9962 143.862 49.936 144.711 51.4052C145.773 53.2418 141.516 55.9345 138.437 58.4574C135.975 60.4758 131.893 65.3538 130.16 67.5406Z" fill="#9D7DE0"/>
<path d="M5.53747 19.8641C3.4866 20.4061 4.57855 25.3237 4.95952 29.2854C6.00271 44.2466 5.0142 72.9583 16.5167 84.3158C23.1334 90.849 31.8499 88.7087 39.5002 86.4118L46.3365 66.0485C42.4885 68.5303 33.8985 72.8311 30.3219 70.1795C25.3682 66.5068 24.85 57.088 24.1455 46.9846C26.0308 45.0626 27.7691 40.0996 29.3942 36.7027C31.4256 32.4566 27.3126 33.2083 24.1391 36.6556C20.2862 40.8409 21.7586 19.0067 18.1116 19.1389C15.9458 19.2175 15.8139 25.0956 15.9645 28.2816C15.0911 24.5803 12.8813 17.2279 11.0295 17.4286C9.17764 17.6292 9.88683 24.1519 10.4729 27.3882C9.51138 24.6995 7.17818 19.4305 5.53747 19.8641Z" fill="#9D7DE0"/>
</g>
<defs>
<linearGradient id="paint0_linear_61_689" x1="85.1729" y1="15.6615" x2="79.0028" y2="47.3319" gradientUnits="userSpaceOnUse">
<stop stop-color="#FB883B"/>
<stop offset="1" stop-color="#FB883B" stop-opacity="0"/>
</linearGradient>
<clipPath id="clip0_61_689">
<rect width="146" height="134" fill="white"/>
</clipPath>
</defs>
</svg>
